# xmcd
#
# Track frame offsets:
#	150
#	24203
#	36522
#	54412
#	72701
#	87846
#	105333
#	116111
#	144408
#	157157
#	168324
#	195485
#	216515
#
# Disc length: 3089 seconds
#
# Revision: 1
# Processed by: cddbd v1.4PL0 Copyright (c) Steve Scherf et al.
# Submitted via: audiograbber 1.81.02
#
DISCID=b90c0f0d
DTITLE=David "Honeyboy" Edwards - Don't Mistreat a Fool
DYEAR=1999
DGENRE=Blues
TTITLE0=Myrtle May
TTITLE1=Bull Cow Blues #2
TTITLE2=Hot Springs (Arkansas) Blues
TTITLE3=Must I Break 'Em On Down
TTITLE4=61 Highway #2
TTITLE5=Little Boy Blue
TTITLE6=You Gonna Catch Trouble
TTITLE7=B&O Blues
TTITLE8=Love Honeyboy Slow
TTITLE9=Don't Mistreat a Fool
TTITLE10=Howlin' Wind
TTITLE11=You're The One
TTITLE12=(Meet The) Morning Train
EXTD=original recordings: 1969 Chicago, 1971 Silver Spring MD.  Post Production
EXTD=1999, Silver Spring
EXTT0=Johnny Shines, guitar
EXTT1=Background conversations -  Big Joe Williams, guitar - Michael Stewart, gui
EXTT1=tar
EXTT2=Michael Stewart, guitar
EXTT3=
EXTT4=
EXTT5=
EXTT6=Johnny Shines, guitar - Big Walter Horton, harmonica
EXTT7=Big Joe Williams, guitar - background conversations
EXTT8=Michael Stewart, guitar
EXTT9=Big Joe Williams, guitar
EXTT10=Michael Stewart, guitar
EXTT11=Johnny Shines, guitar - Big Walter Horton, harmonica - Big Joe Williams, g
EXTT11=uitar
EXTT12=
PLAYORDER=
